<?xml version="1.0" encoding="utf-8" standalone="no"?>
<!DOCTYPE svg PUBLIC "-//W3C//DTD SVG 1.1//EN"
  "http://www.w3.org/Graphics/SVG/1.1/DTD/svg11.dtd">
<!-- Created with matplotlib (https://matplotlib.org/) -->
<svg height="720pt" version="1.1" viewBox="0 0 1440 720" width="1440pt" xmlns="http://www.w3.org/2000/svg" xmlns:xlink="http://www.w3.org/1999/xlink">
 <defs>
  <style type="text/css">
*{stroke-linecap:butt;stroke-linejoin:round;}
  </style>
 </defs>
 <g id="figure_1">
  <g id="patch_1">
   <path d="M 0 720 
L 1440 720 
L 1440 0 
L 0 0 
z
" style="fill:#ffffff;"/>
  </g>
  <g id="axes_1">
   <g id="patch_2">
    <path d="M 78.045 637.58 
L 1408.08 637.58 
L 1408.08 31.92 
L 78.045 31.92 
z
" style="fill:#eaeaf2;"/>
   </g>
   <g id="matplotlib.axis_1">
    <g id="xtick_1">
     <g id="line2d_1">
      <path clip-path="url(#pacc95d8005)" d="M 202.541114 637.58 
L 202.541114 31.92 
" style="fill:none;stroke:#ffffff;stroke-linecap:round;"/>
     </g>
     <g id="text_1">
      <!-- 0 -->
      <defs>
       <path d="M 4.15625 35.296875 
Q 4.15625 48 6.765625 55.734375 
Q 9.375 63.484375 14.515625 67.671875 
Q 19.671875 71.875 27.484375 71.875 
Q 33.25 71.875 37.59375 69.546875 
Q 41.9375 67.234375 44.765625 62.859375 
Q 47.609375 58.5 49.21875 52.21875 
Q 50.828125 45.953125 50.828125 35.296875 
Q 50.828125 22.703125 48.234375 14.96875 
Q 45.65625 7.234375 40.5 3 
Q 35.359375 -1.21875 27.484375 -1.21875 
Q 17.140625 -1.21875 11.234375 6.203125 
Q 4.15625 15.140625 4.15625 35.296875 
z
M 13.1875 35.296875 
Q 13.1875 17.671875 17.3125 11.828125 
Q 21.4375 6 27.484375 6 
Q 33.546875 6 37.671875 11.859375 
Q 41.796875 17.71875 41.796875 35.296875 
Q 41.796875 52.984375 37.671875 58.78125 
Q 33.546875 64.59375 27.390625 64.59375 
Q 21.34375 64.59375 17.71875 59.46875 
Q 13.1875 52.9375 13.1875 35.296875 
z
" id="ArialMT-48"/>
      </defs>
      <g style="fill:#262626;" transform="translate(196.424083 662.827188)scale(0.22 -0.22)">
       <use xlink:href="#ArialMT-48"/>
      </g>
     </g>
    </g>
    <g id="xtick_2">
     <g id="line2d_2">
      <path clip-path="url(#pacc95d8005)" d="M 446.927408 637.58 
L 446.927408 31.92 
" style="fill:none;stroke:#ffffff;stroke-linecap:round;"/>
     </g>
     <g id="text_2">
      <!-- 20 -->
      <defs>
       <path d="M 50.34375 8.453125 
L 50.34375 0 
L 3.03125 0 
Q 2.9375 3.171875 4.046875 6.109375 
Q 5.859375 10.9375 9.828125 15.625 
Q 13.8125 20.3125 21.34375 26.46875 
Q 33.015625 36.03125 37.109375 41.625 
Q 41.21875 47.21875 41.21875 52.203125 
Q 41.21875 57.421875 37.46875 61 
Q 33.734375 64.59375 27.734375 64.59375 
Q 21.390625 64.59375 17.578125 60.78125 
Q 13.765625 56.984375 13.71875 50.25 
L 4.6875 51.171875 
Q 5.609375 61.28125 11.65625 66.578125 
Q 17.71875 71.875 27.9375 71.875 
Q 38.234375 71.875 44.234375 66.15625 
Q 50.25 60.453125 50.25 52 
Q 50.25 47.703125 48.484375 43.546875 
Q 46.734375 39.40625 42.65625 34.8125 
Q 38.578125 30.21875 29.109375 22.21875 
Q 21.1875 15.578125 18.9375 13.203125 
Q 16.703125 10.84375 15.234375 8.453125 
z
" id="ArialMT-50"/>
      </defs>
      <g style="fill:#262626;" transform="translate(434.693346 662.827188)scale(0.22 -0.22)">
       <use xlink:href="#ArialMT-50"/>
       <use x="55.615234" xlink:href="#ArialMT-48"/>
      </g>
     </g>
    </g>
    <g id="xtick_3">
     <g id="line2d_3">
      <path clip-path="url(#pacc95d8005)" d="M 691.313702 637.58 
L 691.313702 31.92 
" style="fill:none;stroke:#ffffff;stroke-linecap:round;"/>
     </g>
     <g id="text_3">
      <!-- 40 -->
      <defs>
       <path d="M 32.328125 0 
L 32.328125 17.140625 
L 1.265625 17.140625 
L 1.265625 25.203125 
L 33.9375 71.578125 
L 41.109375 71.578125 
L 41.109375 25.203125 
L 50.78125 25.203125 
L 50.78125 17.140625 
L 41.109375 17.140625 
L 41.109375 0 
z
M 32.328125 25.203125 
L 32.328125 57.46875 
L 9.90625 25.203125 
z
" id="ArialMT-52"/>
      </defs>
      <g style="fill:#262626;" transform="translate(679.07964 662.827188)scale(0.22 -0.22)">
       <use xlink:href="#ArialMT-52"/>
       <use x="55.615234" xlink:href="#ArialMT-48"/>
      </g>
     </g>
    </g>
    <g id="xtick_4">
     <g id="line2d_4">
      <path clip-path="url(#pacc95d8005)" d="M 935.699996 637.58 
L 935.699996 31.92 
" style="fill:none;stroke:#ffffff;stroke-linecap:round;"/>
     </g>
     <g id="text_4">
      <!-- 60 -->
      <defs>
       <path d="M 49.75 54.046875 
L 41.015625 53.375 
Q 39.84375 58.546875 37.703125 60.890625 
Q 34.125 64.65625 28.90625 64.65625 
Q 24.703125 64.65625 21.53125 62.3125 
Q 17.390625 59.28125 14.984375 53.46875 
Q 12.59375 47.65625 12.5 36.921875 
Q 15.671875 41.75 20.265625 44.09375 
Q 24.859375 46.4375 29.890625 46.4375 
Q 38.671875 46.4375 44.84375 39.96875 
Q 51.03125 33.5 51.03125 23.25 
Q 51.03125 16.5 48.125 10.71875 
Q 45.21875 4.9375 40.140625 1.859375 
Q 35.0625 -1.21875 28.609375 -1.21875 
Q 17.625 -1.21875 10.6875 6.859375 
Q 3.765625 14.9375 3.765625 33.5 
Q 3.765625 54.25 11.421875 63.671875 
Q 18.109375 71.875 29.4375 71.875 
Q 37.890625 71.875 43.28125 67.140625 
Q 48.6875 62.40625 49.75 54.046875 
z
M 13.875 23.1875 
Q 13.875 18.65625 15.796875 14.5 
Q 17.71875 10.359375 21.1875 8.171875 
Q 24.65625 6 28.46875 6 
Q 34.03125 6 38.03125 10.484375 
Q 42.046875 14.984375 42.046875 22.703125 
Q 42.046875 30.125 38.078125 34.390625 
Q 34.125 38.671875 28.125 38.671875 
Q 22.171875 38.671875 18.015625 34.390625 
Q 13.875 30.125 13.875 23.1875 
z
" id="ArialMT-54"/>
      </defs>
      <g style="fill:#262626;" transform="translate(923.465934 662.827188)scale(0.22 -0.22)">
       <use xlink:href="#ArialMT-54"/>
       <use x="55.615234" xlink:href="#ArialMT-48"/>
      </g>
     </g>
    </g>
    <g id="xtick_5">
     <g id="line2d_5">
      <path clip-path="url(#pacc95d8005)" d="M 1180.08629 637.58 
L 1180.08629 31.92 
" style="fill:none;stroke:#ffffff;stroke-linecap:round;"/>
     </g>
     <g id="text_5">
      <!-- 80 -->
      <defs>
       <path d="M 17.671875 38.8125 
Q 12.203125 40.828125 9.5625 44.53125 
Q 6.9375 48.25 6.9375 53.421875 
Q 6.9375 61.234375 12.546875 66.546875 
Q 18.171875 71.875 27.484375 71.875 
Q 36.859375 71.875 42.578125 66.421875 
Q 48.296875 60.984375 48.296875 53.171875 
Q 48.296875 48.1875 45.671875 44.5 
Q 43.0625 40.828125 37.75 38.8125 
Q 44.34375 36.671875 47.78125 31.875 
Q 51.21875 27.09375 51.21875 20.453125 
Q 51.21875 11.28125 44.71875 5.03125 
Q 38.234375 -1.21875 27.640625 -1.21875 
Q 17.046875 -1.21875 10.546875 5.046875 
Q 4.046875 11.328125 4.046875 20.703125 
Q 4.046875 27.6875 7.59375 32.390625 
Q 11.140625 37.109375 17.671875 38.8125 
z
M 15.921875 53.71875 
Q 15.921875 48.640625 19.1875 45.40625 
Q 22.46875 42.1875 27.6875 42.1875 
Q 32.765625 42.1875 36.015625 45.375 
Q 39.265625 48.578125 39.265625 53.21875 
Q 39.265625 58.0625 35.90625 61.359375 
Q 32.5625 64.65625 27.59375 64.65625 
Q 22.5625 64.65625 19.234375 61.421875 
Q 15.921875 58.203125 15.921875 53.71875 
z
M 13.09375 20.65625 
Q 13.09375 16.890625 14.875 13.375 
Q 16.65625 9.859375 20.171875 7.921875 
Q 23.6875 6 27.734375 6 
Q 34.03125 6 38.125 10.046875 
Q 42.234375 14.109375 42.234375 20.359375 
Q 42.234375 26.703125 38.015625 30.859375 
Q 33.796875 35.015625 27.4375 35.015625 
Q 21.234375 35.015625 17.15625 30.90625 
Q 13.09375 26.8125 13.09375 20.65625 
z
" id="ArialMT-56"/>
      </defs>
      <g style="fill:#262626;" transform="translate(1167.852228 662.827188)scale(0.22 -0.22)">
       <use xlink:href="#ArialMT-56"/>
       <use x="55.615234" xlink:href="#ArialMT-48"/>
      </g>
     </g>
    </g>
    <g id="text_6">
     <!-- popularity -->
     <defs>
      <path d="M 6.59375 -19.875 
L 6.59375 51.859375 
L 14.59375 51.859375 
L 14.59375 45.125 
Q 17.4375 49.078125 21 51.046875 
Q 24.5625 53.03125 29.640625 53.03125 
Q 36.28125 53.03125 41.359375 49.609375 
Q 46.4375 46.1875 49.015625 39.953125 
Q 51.609375 33.734375 51.609375 26.3125 
Q 51.609375 18.359375 48.75 11.984375 
Q 45.90625 5.609375 40.453125 2.21875 
Q 35.015625 -1.171875 29 -1.171875 
Q 24.609375 -1.171875 21.109375 0.6875 
Q 17.625 2.546875 15.375 5.375 
L 15.375 -19.875 
z
M 14.546875 25.640625 
Q 14.546875 15.625 18.59375 10.84375 
Q 22.65625 6.0625 28.421875 6.0625 
Q 34.28125 6.0625 38.453125 11.015625 
Q 42.625 15.96875 42.625 26.375 
Q 42.625 36.28125 38.546875 41.203125 
Q 34.46875 46.140625 28.8125 46.140625 
Q 23.1875 46.140625 18.859375 40.890625 
Q 14.546875 35.640625 14.546875 25.640625 
z
" id="ArialMT-112"/>
      <path d="M 3.328125 25.921875 
Q 3.328125 40.328125 11.328125 47.265625 
Q 18.015625 53.03125 27.640625 53.03125 
Q 38.328125 53.03125 45.109375 46.015625 
Q 51.90625 39.015625 51.90625 26.65625 
Q 51.90625 16.65625 48.90625 10.90625 
Q 45.90625 5.171875 40.15625 2 
Q 34.421875 -1.171875 27.640625 -1.171875 
Q 16.75 -1.171875 10.03125 5.8125 
Q 3.328125 12.796875 3.328125 25.921875 
z
M 12.359375 25.921875 
Q 12.359375 15.96875 16.703125 11.015625 
Q 21.046875 6.0625 27.640625 6.0625 
Q 34.1875 6.0625 38.53125 11.03125 
Q 42.875 16.015625 42.875 26.21875 
Q 42.875 35.84375 38.5 40.796875 
Q 34.125 45.75 27.640625 45.75 
Q 21.046875 45.75 16.703125 40.8125 
Q 12.359375 35.890625 12.359375 25.921875 
z
" id="ArialMT-111"/>
      <path d="M 40.578125 0 
L 40.578125 7.625 
Q 34.515625 -1.171875 24.125 -1.171875 
Q 19.53125 -1.171875 15.546875 0.578125 
Q 11.578125 2.34375 9.640625 5 
Q 7.71875 7.671875 6.9375 11.53125 
Q 6.390625 14.109375 6.390625 19.734375 
L 6.390625 51.859375 
L 15.1875 51.859375 
L 15.1875 23.09375 
Q 15.1875 16.21875 15.71875 13.8125 
Q 16.546875 10.359375 19.234375 8.375 
Q 21.921875 6.390625 25.875 6.390625 
Q 29.828125 6.390625 33.296875 8.421875 
Q 36.765625 10.453125 38.203125 13.9375 
Q 39.65625 17.4375 39.65625 24.078125 
L 39.65625 51.859375 
L 48.4375 51.859375 
L 48.4375 0 
z
" id="ArialMT-117"/>
      <path d="M 6.390625 0 
L 6.390625 71.578125 
L 15.1875 71.578125 
L 15.1875 0 
z
" id="ArialMT-108"/>
      <path d="M 40.4375 6.390625 
Q 35.546875 2.25 31.03125 0.53125 
Q 26.515625 -1.171875 21.34375 -1.171875 
Q 12.796875 -1.171875 8.203125 3 
Q 3.609375 7.171875 3.609375 13.671875 
Q 3.609375 17.484375 5.34375 20.625 
Q 7.078125 23.78125 9.890625 25.6875 
Q 12.703125 27.59375 16.21875 28.5625 
Q 18.796875 29.25 24.03125 29.890625 
Q 34.671875 31.15625 39.703125 32.90625 
Q 39.75 34.71875 39.75 35.203125 
Q 39.75 40.578125 37.25 42.78125 
Q 33.890625 45.75 27.25 45.75 
Q 21.046875 45.75 18.09375 43.578125 
Q 15.140625 41.40625 13.71875 35.890625 
L 5.125 37.0625 
Q 6.296875 42.578125 8.984375 45.96875 
Q 11.671875 49.359375 16.75 51.1875 
Q 21.828125 53.03125 28.515625 53.03125 
Q 35.15625 53.03125 39.296875 51.46875 
Q 43.453125 49.90625 45.40625 47.53125 
Q 47.359375 45.171875 48.140625 41.546875 
Q 48.578125 39.3125 48.578125 33.453125 
L 48.578125 21.734375 
Q 48.578125 9.46875 49.140625 6.21875 
Q 49.703125 2.984375 51.375 0 
L 42.1875 0 
Q 40.828125 2.734375 40.4375 6.390625 
z
M 39.703125 26.03125 
Q 34.90625 24.078125 25.34375 22.703125 
Q 19.921875 21.921875 17.671875 20.9375 
Q 15.4375 19.96875 14.203125 18.09375 
Q 12.984375 16.21875 12.984375 13.921875 
Q 12.984375 10.40625 15.640625 8.0625 
Q 18.3125 5.71875 23.4375 5.71875 
Q 28.515625 5.71875 32.46875 7.9375 
Q 36.421875 10.15625 38.28125 14.015625 
Q 39.703125 17 39.703125 22.796875 
z
" id="ArialMT-97"/>
      <path d="M 6.5 0 
L 6.5 51.859375 
L 14.40625 51.859375 
L 14.40625 44 
Q 17.4375 49.515625 20 51.265625 
Q 22.5625 53.03125 25.640625 53.03125 
Q 30.078125 53.03125 34.671875 50.203125 
L 31.640625 42.046875 
Q 28.421875 43.953125 25.203125 43.953125 
Q 22.3125 43.953125 20.015625 42.21875 
Q 17.71875 40.484375 16.75 37.40625 
Q 15.28125 32.71875 15.28125 27.15625 
L 15.28125 0 
z
" id="ArialMT-114"/>
      <path d="M 6.640625 61.46875 
L 6.640625 71.578125 
L 15.4375 71.578125 
L 15.4375 61.46875 
z
M 6.640625 0 
L 6.640625 51.859375 
L 15.4375 51.859375 
L 15.4375 0 
z
" id="ArialMT-105"/>
      <path d="M 25.78125 7.859375 
L 27.046875 0.09375 
Q 23.34375 -0.6875 20.40625 -0.6875 
Q 15.625 -0.6875 12.984375 0.828125 
Q 10.359375 2.34375 9.28125 4.8125 
Q 8.203125 7.28125 8.203125 15.1875 
L 8.203125 45.015625 
L 1.765625 45.015625 
L 1.765625 51.859375 
L 8.203125 51.859375 
L 8.203125 64.703125 
L 16.9375 69.96875 
L 16.9375 51.859375 
L 25.78125 51.859375 
L 25.78125 45.015625 
L 16.9375 45.015625 
L 16.9375 14.703125 
Q 16.9375 10.9375 17.40625 9.859375 
Q 17.875 8.796875 18.921875 8.15625 
Q 19.96875 7.515625 21.921875 7.515625 
Q 23.390625 7.515625 25.78125 7.859375 
z
" id="ArialMT-116"/>
      <path d="M 6.203125 -19.96875 
L 5.21875 -11.71875 
Q 8.109375 -12.5 10.25 -12.5 
Q 13.1875 -12.5 14.9375 -11.515625 
Q 16.703125 -10.546875 17.828125 -8.796875 
Q 18.65625 -7.46875 20.515625 -2.25 
Q 20.75 -1.515625 21.296875 -0.09375 
L 1.609375 51.859375 
L 11.078125 51.859375 
L 21.875 21.828125 
Q 23.96875 16.109375 25.640625 9.8125 
Q 27.15625 15.875 29.25 21.625 
L 40.328125 51.859375 
L 49.125 51.859375 
L 29.390625 -0.875 
Q 26.21875 -9.421875 24.46875 -12.640625 
Q 22.125 -17 19.09375 -19.015625 
Q 16.0625 -21.046875 11.859375 -21.046875 
Q 9.328125 -21.046875 6.203125 -19.96875 
z
" id="ArialMT-121"/>
     </defs>
     <g style="fill:#262626;" transform="translate(691.035 688.378438)scale(0.24 -0.24)">
      <use xlink:href="#ArialMT-112"/>
      <use x="55.615234" xlink:href="#ArialMT-111"/>
      <use x="111.230469" xlink:href="#ArialMT-112"/>
      <use x="166.845703" xlink:href="#ArialMT-117"/>
      <use x="222.460938" xlink:href="#ArialMT-108"/>
      <use x="244.677734" xlink:href="#ArialMT-97"/>
      <use x="300.292969" xlink:href="#ArialMT-114"/>
      <use x="333.59375" xlink:href="#ArialMT-105"/>
      <use x="355.810547" xlink:href="#ArialMT-116"/>
      <use x="383.59375" xlink:href="#ArialMT-121"/>
     </g>
    </g>
   </g>
   <g id="matplotlib.axis_2">
    <g id="ytick_1">
     <g id="line2d_6">
      <path clip-path="url(#pacc95d8005)" d="M 78.045 637.58 
L 1408.08 637.58 
" style="fill:none;stroke:#ffffff;stroke-linecap:round;"/>
     </g>
     <g id="text_7">
      <!-- 0.00 -->
      <defs>
       <path d="M 9.078125 0 
L 9.078125 10.015625 
L 19.09375 10.015625 
L 19.09375 0 
z
" id="ArialMT-46"/>
      </defs>
      <g style="fill:#262626;" transform="translate(25.730938 645.453594)scale(0.22 -0.22)">
       <use xlink:href="#ArialMT-48"/>
       <use x="55.615234" xlink:href="#ArialMT-46"/>
       <use x="83.398438" xlink:href="#ArialMT-48"/>
       <use x="139.013672" xlink:href="#ArialMT-48"/>
      </g>
     </g>
    </g>
    <g id="ytick_2">
     <g id="line2d_7">
      <path clip-path="url(#pacc95d8005)" d="M 78.045 540.20244 
L 1408.08 540.20244 
" style="fill:none;stroke:#ffffff;stroke-linecap:round;"/>
     </g>
     <g id="text_8">
      <!-- 0.02 -->
      <g style="fill:#262626;" transform="translate(25.730938 548.076034)scale(0.22 -0.22)">
       <use xlink:href="#ArialMT-48"/>
       <use x="55.615234" xlink:href="#ArialMT-46"/>
       <use x="83.398438" xlink:href="#ArialMT-48"/>
       <use x="139.013672" xlink:href="#ArialMT-50"/>
      </g>
     </g>
    </g>
    <g id="ytick_3">
     <g id="line2d_8">
      <path clip-path="url(#pacc95d8005)" d="M 78.045 442.82488 
L 1408.08 442.82488 
" style="fill:none;stroke:#ffffff;stroke-linecap:round;"/>
     </g>
     <g id="text_9">
      <!-- 0.04 -->
      <g style="fill:#262626;" transform="translate(25.730938 450.698473)scale(0.22 -0.22)">
       <use xlink:href="#ArialMT-48"/>
       <use x="55.615234" xlink:href="#ArialMT-46"/>
       <use x="83.398438" xlink:href="#ArialMT-48"/>
       <use x="139.013672" xlink:href="#ArialMT-52"/>
      </g>
     </g>
    </g>
    <g id="ytick_4">
     <g id="line2d_9">
      <path clip-path="url(#pacc95d8005)" d="M 78.045 345.447319 
L 1408.08 345.447319 
" style="fill:none;stroke:#ffffff;stroke-linecap:round;"/>
     </g>
     <g id="text_10">
      <!-- 0.06 -->
      <g style="fill:#262626;" transform="translate(25.730938 353.320913)scale(0.22 -0.22)">
       <use xlink:href="#ArialMT-48"/>
       <use x="55.615234" xlink:href="#ArialMT-46"/>
       <use x="83.398438" xlink:href="#ArialMT-48"/>
       <use x="139.013672" xlink:href="#ArialMT-54"/>
      </g>
     </g>
    </g>
    <g id="ytick_5">
     <g id="line2d_10">
      <path clip-path="url(#pacc95d8005)" d="M 78.045 248.069759 
L 1408.08 248.069759 
" style="fill:none;stroke:#ffffff;stroke-linecap:round;"/>
     </g>
     <g id="text_11">
      <!-- 0.08 -->
      <g style="fill:#262626;" transform="translate(25.730938 255.943353)scale(0.22 -0.22)">
       <use xlink:href="#ArialMT-48"/>
       <use x="55.615234" xlink:href="#ArialMT-46"/>
       <use x="83.398438" xlink:href="#ArialMT-48"/>
       <use x="139.013672" xlink:href="#ArialMT-56"/>
      </g>
     </g>
    </g>
    <g id="ytick_6">
     <g id="line2d_11">
      <path clip-path="url(#pacc95d8005)" d="M 78.045 150.692199 
L 1408.08 150.692199 
" style="fill:none;stroke:#ffffff;stroke-linecap:round;"/>
     </g>
     <g id="text_12">
      <!-- 0.10 -->
      <defs>
       <path d="M 37.25 0 
L 28.46875 0 
L 28.46875 56 
Q 25.296875 52.984375 20.140625 49.953125 
Q 14.984375 46.921875 10.890625 45.40625 
L 10.890625 53.90625 
Q 18.265625 57.375 23.78125 62.296875 
Q 29.296875 67.234375 31.59375 71.875 
L 37.25 71.875 
z
" id="ArialMT-49"/>
      </defs>
      <g style="fill:#262626;" transform="translate(25.730938 158.565793)scale(0.22 -0.22)">
       <use xlink:href="#ArialMT-48"/>
       <use x="55.615234" xlink:href="#ArialMT-46"/>
       <use x="83.398438" xlink:href="#ArialMT-49"/>
       <use x="139.013672" xlink:href="#ArialMT-48"/>
      </g>
     </g>
    </g>
    <g id="ytick_7">
     <g id="line2d_12">
      <path clip-path="url(#pacc95d8005)" d="M 78.045 53.314639 
L 1408.08 53.314639 
" style="fill:none;stroke:#ffffff;stroke-linecap:round;"/>
     </g>
     <g id="text_13">
      <!-- 0.12 -->
      <g style="fill:#262626;" transform="translate(25.730938 61.188232)scale(0.22 -0.22)">
       <use xlink:href="#ArialMT-48"/>
       <use x="55.615234" xlink:href="#ArialMT-46"/>
       <use x="83.398438" xlink:href="#ArialMT-49"/>
       <use x="139.013672" xlink:href="#ArialMT-50"/>
      </g>
     </g>
    </g>
   </g>
   <g id="patch_3">
    <path clip-path="url(#pacc95d8005)" d="M 202.907694 637.58 
L 225.414144 637.58 
L 225.414144 60.760952 
L 202.907694 60.760952 
z
" style="fill:#4c72b0;opacity:0.4;stroke:#ffffff;stroke-linejoin:miter;"/>
   </g>
   <g id="patch_4">
    <path clip-path="url(#pacc95d8005)" d="M 225.414144 637.58 
L 247.920594 637.58 
L 247.920594 366.360448 
L 225.414144 366.360448 
z
" style="fill:#4c72b0;opacity:0.4;stroke:#ffffff;stroke-linejoin:miter;"/>
   </g>
   <g id="patch_5">
    <path clip-path="url(#pacc95d8005)" d="M 247.920594 637.58 
L 270.427044 637.58 
L 270.427044 408.380378 
L 247.920594 408.380378 
z
" style="fill:#4c72b0;opacity:0.4;stroke:#ffffff;stroke-linejoin:miter;"/>
   </g>
   <g id="patch_6">
    <path clip-path="url(#pacc95d8005)" d="M 270.427044 637.58 
L 292.933495 637.58 
L 292.933495 282.320587 
L 270.427044 282.320587 
z
" style="fill:#4c72b0;opacity:0.4;stroke:#ffffff;stroke-linejoin:miter;"/>
   </g>
   <g id="patch_7">
    <path clip-path="url(#pacc95d8005)" d="M 292.933495 637.58 
L 315.439945 637.58 
L 315.439945 297.600561 
L 292.933495 297.600561 
z
" style="fill:#4c72b0;opacity:0.4;stroke:#ffffff;stroke-linejoin:miter;"/>
   </g>
   <g id="patch_8">
    <path clip-path="url(#pacc95d8005)" d="M 315.439945 637.58 
L 337.946395 637.58 
L 337.946395 385.460416 
L 315.439945 385.460416 
z
" style="fill:#4c72b0;opacity:0.4;stroke:#ffffff;stroke-linejoin:miter;"/>
   </g>
   <g id="patch_9">
    <path clip-path="url(#pacc95d8005)" d="M 337.946395 637.58 
L 360.452846 637.58 
L 360.452846 435.120334 
L 337.946395 435.120334 
z
" style="fill:#4c72b0;opacity:0.4;stroke:#ffffff;stroke-linejoin:miter;"/>
   </g>
   <g id="patch_10">
    <path clip-path="url(#pacc95d8005)" d="M 360.452846 637.58 
L 382.959296 637.58 
L 382.959296 500.060227 
L 360.452846 500.060227 
z
" style="fill:#4c72b0;opacity:0.4;stroke:#ffffff;stroke-linejoin:miter;"/>
   </g>
   <g id="patch_11">
    <path clip-path="url(#pacc95d8005)" d="M 382.959296 637.58 
L 405.465746 637.58 
L 405.465746 553.540139 
L 382.959296 553.540139 
z
" style="fill:#4c72b0;opacity:0.4;stroke:#ffffff;stroke-linejoin:miter;"/>
   </g>
   <g id="patch_12">
    <path clip-path="url(#pacc95d8005)" d="M 405.465746 637.58 
L 427.972196 637.58 
L 427.972196 565.00012 
L 405.465746 565.00012 
z
" style="fill:#4c72b0;opacity:0.4;stroke:#ffffff;stroke-linejoin:miter;"/>
   </g>
   <g id="patch_13">
    <path clip-path="url(#pacc95d8005)" d="M 427.972196 637.58 
L 450.478647 637.58 
L 450.478647 603.200057 
L 427.972196 603.200057 
z
" style="fill:#4c72b0;opacity:0.4;stroke:#ffffff;stroke-linejoin:miter;"/>
   </g>
   <g id="patch_14">
    <path clip-path="url(#pacc95d8005)" d="M 450.478647 637.58 
L 472.985097 637.58 
L 472.985097 622.300025 
L 450.478647 622.300025 
z
" style="fill:#4c72b0;opacity:0.4;stroke:#ffffff;stroke-linejoin:miter;"/>
   </g>
   <g id="patch_15">
    <path clip-path="url(#pacc95d8005)" d="M 472.985097 637.58 
L 495.491547 637.58 
L 495.491547 633.760006 
L 472.985097 633.760006 
z
" style="fill:#4c72b0;opacity:0.4;stroke:#ffffff;stroke-linejoin:miter;"/>
   </g>
   <g id="patch_16">
    <path clip-path="url(#pacc95d8005)" d="M 495.491547 637.58 
L 517.997997 637.58 
L 517.997997 633.760006 
L 495.491547 633.760006 
z
" style="fill:#4c72b0;opacity:0.4;stroke:#ffffff;stroke-linejoin:miter;"/>
   </g>
   <g id="patch_17">
    <path clip-path="url(#pacc95d8005)" d="M 517.997997 637.58 
L 540.504448 637.58 
L 540.504448 637.58 
L 517.997997 637.58 
z
" style="fill:#4c72b0;opacity:0.4;stroke:#ffffff;stroke-linejoin:miter;"/>
   </g>
   <g id="patch_18">
    <path clip-path="url(#pacc95d8005)" d="M 540.504448 637.58 
L 563.010898 637.58 
L 563.010898 626.120019 
L 540.504448 626.120019 
z
" style="fill:#4c72b0;opacity:0.4;stroke:#ffffff;stroke-linejoin:miter;"/>
   </g>
   <g id="patch_19">
    <path clip-path="url(#pacc95d8005)" d="M 563.010898 637.58 
L 585.517348 637.58 
L 585.517348 629.940013 
L 563.010898 629.940013 
z
" style="fill:#4c72b0;opacity:0.4;stroke:#ffffff;stroke-linejoin:miter;"/>
   </g>
   <g id="patch_20">
    <path clip-path="url(#pacc95d8005)" d="M 585.517348 637.58 
L 608.023798 637.58 
L 608.023798 633.760006 
L 585.517348 633.760006 
z
" style="fill:#4c72b0;opacity:0.4;stroke:#ffffff;stroke-linejoin:miter;"/>
   </g>
   <g id="patch_21">
    <path clip-path="url(#pacc95d8005)" d="M 608.023798 637.58 
L 630.530249 637.58 
L 630.530249 633.760006 
L 608.023798 633.760006 
z
" style="fill:#4c72b0;opacity:0.4;stroke:#ffffff;stroke-linejoin:miter;"/>
   </g>
   <g id="patch_22">
    <path clip-path="url(#pacc95d8005)" d="M 630.530249 637.58 
L 653.036699 637.58 
L 653.036699 626.120019 
L 630.530249 626.120019 
z
" style="fill:#4c72b0;opacity:0.4;stroke:#ffffff;stroke-linejoin:miter;"/>
   </g>
   <g id="patch_23">
    <path clip-path="url(#pacc95d8005)" d="M 653.036699 637.58 
L 675.543149 637.58 
L 675.543149 637.58 
L 653.036699 637.58 
z
" style="fill:#4c72b0;opacity:0.4;stroke:#ffffff;stroke-linejoin:miter;"/>
   </g>
   <g id="patch_24">
    <path clip-path="url(#pacc95d8005)" d="M 675.543149 637.58 
L 698.049599 637.58 
L 698.049599 633.760006 
L 675.543149 633.760006 
z
" style="fill:#4c72b0;opacity:0.4;stroke:#ffffff;stroke-linejoin:miter;"/>
   </g>
   <g id="patch_25">
    <path clip-path="url(#pacc95d8005)" d="M 698.049599 637.58 
L 720.55605 637.58 
L 720.55605 633.760006 
L 698.049599 633.760006 
z
" style="fill:#4c72b0;opacity:0.4;stroke:#ffffff;stroke-linejoin:miter;"/>
   </g>
   <g id="patch_26">
    <path clip-path="url(#pacc95d8005)" d="M 720.55605 637.58 
L 743.0625 637.58 
L 743.0625 637.58 
L 720.55605 637.58 
z
" style="fill:#4c72b0;opacity:0.4;stroke:#ffffff;stroke-linejoin:miter;"/>
   </g>
   <g id="patch_27">
    <path clip-path="url(#pacc95d8005)" d="M 743.0625 637.58 
L 765.56895 637.58 
L 765.56895 637.58 
L 743.0625 637.58 
z
" style="fill:#4c72b0;opacity:0.4;stroke:#ffffff;stroke-linejoin:miter;"/>
   </g>
   <g id="patch_28">
    <path clip-path="url(#pacc95d8005)" d="M 765.56895 637.58 
L 788.075401 637.58 
L 788.075401 637.58 
L 765.56895 637.58 
z
" style="fill:#4c72b0;opacity:0.4;stroke:#ffffff;stroke-linejoin:miter;"/>
   </g>
   <g id="patch_29">
    <path clip-path="url(#pacc95d8005)" d="M 788.075401 637.58 
L 810.581851 637.58 
L 810.581851 633.760006 
L 788.075401 633.760006 
z
" style="fill:#4c72b0;opacity:0.4;stroke:#ffffff;stroke-linejoin:miter;"/>
   </g>
   <g id="patch_30">
    <path clip-path="url(#pacc95d8005)" d="M 810.581851 637.58 
L 833.088301 637.58 
L 833.088301 637.58 
L 810.581851 637.58 
z
" style="fill:#4c72b0;opacity:0.4;stroke:#ffffff;stroke-linejoin:miter;"/>
   </g>
   <g id="patch_31">
    <path clip-path="url(#pacc95d8005)" d="M 833.088301 637.58 
L 855.594751 637.58 
L 855.594751 637.58 
L 833.088301 637.58 
z
" style="fill:#4c72b0;opacity:0.4;stroke:#ffffff;stroke-linejoin:miter;"/>
   </g>
   <g id="patch_32">
    <path clip-path="url(#pacc95d8005)" d="M 855.594751 637.58 
L 878.101202 637.58 
L 878.101202 637.58 
L 855.594751 637.58 
z
" style="fill:#4c72b0;opacity:0.4;stroke:#ffffff;stroke-linejoin:miter;"/>
   </g>
   <g id="patch_33">
    <path clip-path="url(#pacc95d8005)" d="M 878.101202 637.58 
L 900.607652 637.58 
L 900.607652 637.58 
L 878.101202 637.58 
z
" style="fill:#4c72b0;opacity:0.4;stroke:#ffffff;stroke-linejoin:miter;"/>
   </g>
   <g id="patch_34">
    <path clip-path="url(#pacc95d8005)" d="M 900.607652 637.58 
L 923.114102 637.58 
L 923.114102 637.58 
L 900.607652 637.58 
z
" style="fill:#4c72b0;opacity:0.4;stroke:#ffffff;stroke-linejoin:miter;"/>
   </g>
   <g id="patch_35">
    <path clip-path="url(#pacc95d8005)" d="M 923.114102 637.58 
L 945.620552 637.58 
L 945.620552 637.58 
L 923.114102 637.58 
z
" style="fill:#4c72b0;opacity:0.4;stroke:#ffffff;stroke-linejoin:miter;"/>
   </g>
   <g id="patch_36">
    <path clip-path="url(#pacc95d8005)" d="M 945.620552 637.58 
L 968.127003 637.58 
L 968.127003 637.58 
L 945.620552 637.58 
z
" style="fill:#4c72b0;opacity:0.4;stroke:#ffffff;stroke-linejoin:miter;"/>
   </g>
   <g id="patch_37">
    <path clip-path="url(#pacc95d8005)" d="M 968.127003 637.58 
L 990.633453 637.58 
L 990.633453 633.760006 
L 968.127003 633.760006 
z
" style="fill:#4c72b0;opacity:0.4;stroke:#ffffff;stroke-linejoin:miter;"/>
   </g>
   <g id="patch_38">
    <path clip-path="url(#pacc95d8005)" d="M 990.633453 637.58 
L 1013.139903 637.58 
L 1013.139903 637.58 
L 990.633453 637.58 
z
" style="fill:#4c72b0;opacity:0.4;stroke:#ffffff;stroke-linejoin:miter;"/>
   </g>
   <g id="patch_39">
    <path clip-path="url(#pacc95d8005)" d="M 1013.139903 637.58 
L 1035.646353 637.58 
L 1035.646353 637.58 
L 1013.139903 637.58 
z
" style="fill:#4c72b0;opacity:0.4;stroke:#ffffff;stroke-linejoin:miter;"/>
   </g>
   <g id="patch_40">
    <path clip-path="url(#pacc95d8005)" d="M 1035.646353 637.58 
L 1058.152804 637.58 
L 1058.152804 637.58 
L 1035.646353 637.58 
z
" style="fill:#4c72b0;opacity:0.4;stroke:#ffffff;stroke-linejoin:miter;"/>
   </g>
   <g id="patch_41">
    <path clip-path="url(#pacc95d8005)" d="M 1058.152804 637.58 
L 1080.659254 637.58 
L 1080.659254 637.58 
L 1058.152804 637.58 
z
" style="fill:#4c72b0;opacity:0.4;stroke:#ffffff;stroke-linejoin:miter;"/>
   </g>
   <g id="patch_42">
    <path clip-path="url(#pacc95d8005)" d="M 1080.659254 637.58 
L 1103.165704 637.58 
L 1103.165704 637.58 
L 1080.659254 637.58 
z
" style="fill:#4c72b0;opacity:0.4;stroke:#ffffff;stroke-linejoin:miter;"/>
   </g>
   <g id="patch_43">
    <path clip-path="url(#pacc95d8005)" d="M 1103.165704 637.58 
L 1125.672154 637.58 
L 1125.672154 637.58 
L 1103.165704 637.58 
z
" style="fill:#4c72b0;opacity:0.4;stroke:#ffffff;stroke-linejoin:miter;"/>
   </g>
   <g id="patch_44">
    <path clip-path="url(#pacc95d8005)" d="M 1125.672154 637.58 
L 1148.178605 637.58 
L 1148.178605 633.760006 
L 1125.672154 633.760006 
z
" style="fill:#4c72b0;opacity:0.4;stroke:#ffffff;stroke-linejoin:miter;"/>
   </g>
   <g id="patch_45">
    <path clip-path="url(#pacc95d8005)" d="M 1148.178605 637.58 
L 1170.685055 637.58 
L 1170.685055 637.58 
L 1148.178605 637.58 
z
" style="fill:#4c72b0;opacity:0.4;stroke:#ffffff;stroke-linejoin:miter;"/>
   </g>
   <g id="patch_46">
    <path clip-path="url(#pacc95d8005)" d="M 1170.685055 637.58 
L 1193.191505 637.58 
L 1193.191505 633.760006 
L 1170.685055 633.760006 
z
" style="fill:#4c72b0;opacity:0.4;stroke:#ffffff;stroke-linejoin:miter;"/>
   </g>
   <g id="patch_47">
    <path clip-path="url(#pacc95d8005)" d="M 1193.191505 637.58 
L 1215.697956 637.58 
L 1215.697956 637.58 
L 1193.191505 637.58 
z
" style="fill:#4c72b0;opacity:0.4;stroke:#ffffff;stroke-linejoin:miter;"/>
   </g>
   <g id="patch_48">
    <path clip-path="url(#pacc95d8005)" d="M 1215.697956 637.58 
L 1238.204406 637.58 
L 1238.204406 637.58 
L 1215.697956 637.58 
z
" style="fill:#4c72b0;opacity:0.4;stroke:#ffffff;stroke-linejoin:miter;"/>
   </g>
   <g id="patch_49">
    <path clip-path="url(#pacc95d8005)" d="M 1238.204406 637.58 
L 1260.710856 637.58 
L 1260.710856 637.58 
L 1238.204406 637.58 
z
" style="fill:#4c72b0;opacity:0.4;stroke:#ffffff;stroke-linejoin:miter;"/>
   </g>
   <g id="patch_50">
    <path clip-path="url(#pacc95d8005)" d="M 1260.710856 637.58 
L 1283.217306 637.58 
L 1283.217306 633.760006 
L 1260.710856 633.760006 
z
" style="fill:#4c72b0;opacity:0.4;stroke:#ffffff;stroke-linejoin:miter;"/>
   </g>
   <g id="line2d_13">
    <path clip-path="url(#pacc95d8005)" d="M 138.501136 636.761983 
L 148.021788 634.471752 
L 157.542439 627.642615 
L 167.063091 610.920694 
L 176.583742 577.387805 
L 186.104393 522.695207 
L 195.625045 451.101222 
L 205.145696 377.995831 
L 214.666348 323.867539 
L 224.186999 302.078093 
L 233.70765 310.098761 
L 243.228302 331.810258 
L 252.748953 348.693311 
L 262.269605 350.743666 
L 271.790256 339.83597 
L 281.310907 325.368059 
L 290.831559 317.174375 
L 300.35221 320.614057 
L 309.872861 335.526955 
L 319.393513 358.081182 
L 338.434816 409.096546 
L 347.955467 433.30578 
L 357.476118 456.552735 
L 366.99677 479.316373 
L 376.517421 501.535525 
L 386.038073 522.470302 
L 395.558724 541.14554 
L 405.079375 557.065854 
L 414.600027 570.547772 
L 424.120678 582.321671 
L 433.64133 592.899846 
L 443.161981 602.370086 
L 452.682632 610.604504 
L 462.203284 617.488296 
L 471.723935 623.005121 
L 481.244587 627.239187 
L 490.765238 630.336834 
L 500.285889 632.437595 
L 509.806541 633.613882 
L 519.327192 633.887956 
L 528.847844 633.358541 
L 547.889146 631.344375 
L 557.409798 630.829161 
L 566.930449 630.9462 
L 585.971752 632.061777 
L 595.492403 632.371975 
L 605.013055 632.305494 
L 633.575009 631.144555 
L 643.09566 631.188255 
L 652.616312 631.652986 
L 681.178266 633.794069 
L 709.74022 635.404165 
L 728.781523 636.612618 
L 738.302174 637.013612 
L 747.822826 637.174101 
L 757.343477 637.083511 
L 785.905431 636.078747 
L 795.426083 636.009185 
L 804.946734 636.223796 
L 833.508688 637.30712 
L 852.549991 637.544578 
L 900.153248 637.578834 
L 928.715202 637.509565 
L 938.235854 637.390139 
L 947.756505 637.156408 
L 976.318459 636.075634 
L 985.839111 636.013964 
L 995.359762 636.234985 
L 1023.921716 637.312799 
L 1042.963019 637.545477 
L 1081.045625 637.551028 
L 1100.086927 637.344193 
L 1109.607579 637.070874 
L 1147.690184 635.421047 
L 1157.210836 635.275272 
L 1166.731487 635.295961 
L 1176.252139 635.49893 
L 1185.77279 635.88523 
L 1204.814093 636.861213 
L 1214.334744 637.211107 
L 1223.855395 637.393986 
L 1233.376047 637.417006 
L 1242.896698 637.285689 
L 1252.41735 636.999485 
L 1271.458652 636.210526 
L 1280.979304 636.004063 
L 1290.499955 636.085518 
L 1309.541258 636.825444 
L 1319.061909 637.176982 
L 1328.582561 637.397601 
L 1338.103212 637.48279 
L 1347.623864 637.382644 
L 1347.623864 637.382644 
" style="fill:none;stroke:#4c72b0;stroke-linecap:round;stroke-width:1.5;"/>
   </g>
   <g id="patch_51">
    <path d="M 78.045 637.58 
L 78.045 31.92 
" style="fill:none;stroke:#ffffff;stroke-linecap:square;stroke-linejoin:miter;stroke-width:1.25;"/>
   </g>
   <g id="patch_52">
    <path d="M 1408.08 637.58 
L 1408.08 31.92 
" style="fill:none;stroke:#ffffff;stroke-linecap:square;stroke-linejoin:miter;stroke-width:1.25;"/>
   </g>
   <g id="patch_53">
    <path d="M 78.045 637.58 
L 1408.08 637.58 
" style="fill:none;stroke:#ffffff;stroke-linecap:square;stroke-linejoin:miter;stroke-width:1.25;"/>
   </g>
   <g id="patch_54">
    <path d="M 78.045 31.92 
L 1408.08 31.92 
" style="fill:none;stroke:#ffffff;stroke-linecap:square;stroke-linejoin:miter;stroke-width:1.25;"/>
   </g>
  </g>
 </g>
 <defs>
  <clipPath id="pacc95d8005">
   <rect height="605.66" width="1330.035" x="78.045" y="31.92"/>
  </clipPath>
 </defs>
</svg>
